<?xml version="1.0" encoding="utf-8"?>
<!-- Generator: Adobe Illustrator 26.0.0, SVG Export Plug-In . SVG Version: 6.00 Build 0)  -->
<svg version="1.1"
	 id="svg17" sodipodi:docname="logo.svg" xmlns:inkscape="http://www.inkscape.org/namespaces/inkscape" xmlns:sodipodi="http://sodipodi.sourceforge.net/DTD/sodipodi-0.dtd" xmlns:svg="http://www.w3.org/2000/svg"
	 xmlns="http://www.w3.org/2000/svg" xmlns:xlink="http://www.w3.org/1999/xlink" x="0px" y="0px" viewBox="0 0 501.3 75.4"
	 style="enable-background:new 0 0 501.3 75.4;" xml:space="preserve">
<style type="text/css">
	.st0{fill:#6366F1;}
</style>
<sodipodi:namedview  bordercolor="#000000" borderopacity="0.25" id="namedview19" inkscape:deskcolor="#d1d1d1" inkscape:pagecheckerboard="0" inkscape:pageopacity="0.0" inkscape:showpageshadow="2" pagecolor="#ffffff">
	</sodipodi:namedview>
<g>
	<g transform="translate(0.000000,700.000000) scale(0.100000,-0.100000)">
		<path d="M450.2,6975.7c-92-10-180.8-48.8-224-98c-24.6-27.9-49.5-87.4-57.2-136.2c-2-11.6-1.7-12.6,5.6-12.6
			c28.9,0,56.8-21.6,74.4-57.5c6.3-13.3,12.6-29.2,13.6-35.6c1.3-9-0.7-6.3-8,10.6c-40.9,92.7-109.3,101-158.5,19.3
			c-6-10-15.6-31.2-21.6-46.9c-10.6-28.6-11-28.9-23.6-30.9c-10.3-1.7-15-5-22.9-16c-5.6-7.3-10-17.6-10-22.9c0-7.3,1.7-9.6,10-11.3
			c5.3-1.3,11.3-1.3,13.3,0c6,3.7,3.7-2-5-12.3c-10-12-10.3-13.3-1.3-21.3c5.3-5,12.6-6.3,33.9-7l27.2-0.7l2-20.9
			c2.3-27.6,10.6-55.2,20.9-70.1l8.3-12.3l-35.6-0.3c-19.6-0.3-46.9-1.3-60.5-2.7c-24.6-2-23.9-2,41.5-9.6
			c120.3-13.6,715.8-83.7,815.8-95.7c79.1-9.6,114-12.3,181.1-13.6c91.7-2,106,2,31.6,8.6c-53.2,4.7-89.7,10.3-89.7,13.6
			c0,6.3,61.8,12.3,167.8,16.6c77.1,3,360.9,10,411.7,10c36.2,0,17.6,2.7-44.5,6.6c-33.9,2-72.8,5-86.4,6l-24.9,2.3l18.6,10.6
			c29.2,16.6,56.2,52.8,67.8,92.4l4,13.3l24.6,2.3c27.9,3,45.2,8,53.8,15.3c9.3,8.3,6.3,10.6-7.6,5.6c-7-2.7-23.9-6-37.6-8
			c-33.9-4.7-168.5-8.6-168.1-5c0,1.7,1.3,6,2.7,9.6c2.7,6.3,5.6,6.6,95.4,6.6c89.4,0,121,3,121,11.3c0,1.3-35.6,3.7-78.8,5
			c-109.7,3-137.2,5.3-137.2,10.6c0,2.7-3,7.6-7,11.6c-3.7,3.7-6.3,7.3-5.6,7.6c0.7,0.7,31.6-1,69.1-3.3
			c146.2-9.3,141.9-9.3,144.6-4.7c1.7,3,0.7,3.3-4.3,2c-3.7-1.3-26.9,2.3-51.2,8.3c-36.2,8.6-48.5,10-69.1,8.6
			c-13.6-1-27.9-2.7-31.6-4c-5.6-1.7-5.6-1.7-1.3,1.3c3,2,16,5.3,28.2,7.3c23.3,4,34.9,3,101.4-10.6c10.3-2.3,21.3-3,24.3-2
			c7,2.7,7,21.9,0,45.9c-16.6,56.5-63.5,114.6-111,137.6c-13.6,6.3-27.6,11.6-30.9,11.6c-5.3,0-5.6,1.7-3.7,11
			c6,27.6,0.3,55.5-14.6,69.8c-16.6,16-35.2,19.3-56.2,10.6c-14.6-6-13-10,2-4.7c34.2,12,68.1-21.9,61.8-62.5
			c-3-21.3-22.6-40.9-40.5-40.9c-10,0-15,2-21.3,9.3c-10,10.6-16.3,24.6-16.3,35.6c0,9.6-4.7,13-14.6,10.3c-7.3-1.7-7.6-3-5-17.3
			c3-16.3,5-19.6,20.9-37.6l10.3-11.3l-9.3,6c-12,7.6-20.6,19.9-25.6,37.2c-5.3,16.9-2.3,33.2,8.6,49.5l8.6,13l-9.6-9
			c-5.3-5.3-10.6-9.3-11.6-9.3c-1.3,0-3.3,7-4.3,16c-4.7,31.9-8,39.2-25.6,55.8c-9.6,9.3-23.3,19.9-30.2,24.3
			c-9,5.6-11.6,8.6-8.6,10.6c6.3,3.7-2.3,13-12.3,13c-4.3,0-8,1-8,2.7c0,1.3,7.6,9.6,17.3,18.3l17.6,16l-16.9-10.3
			c-9.3-5.3-20.6-10-24.9-10.3c-4.3,0-11-1.3-14.6-3c-6-2.7-5.6-3,2.7-3c12.3-0.3,11.6-9-1-11.3c-9-2-14.6-12.3-6.6-12.3
			c2,0,3.3-2,3.3-4.7s-8.3-6.6-21.3-10c-26.9-7.3-51.8-18.9-59.8-28.2c-6.6-7-6.6-8.3-1-52.8c21.9-177.1,28.9-226.3,36.9-248.2
			c7.6-21.9,12.6-28.6,16.3-22.6c1.7,2.7-6,69.1-27.2,234.6c-5.6,43.5-9.6,80.8-8.6,82.1c5,7.6,80.8,28.9,90.4,25.3
			c7.6-3,4.7-7-5.6-7.6c-13.3-1-51.5-10.6-65.8-16.6l-11.6-4.7l2.3-22.3c1.3-12.3,9-73.8,16.9-136.9c8-63.1,15.6-123.3,16.6-133.6
			l2.3-19.3h27.9c20.6,0,28.6,1.3,29.9,4.3c1,2.7-3,42.5-8.6,88.7s-9.6,86.4-9.3,89.4c1,4.3,14.3-84.1,24.9-164.8l1.7-14.3h19.6
			c12.3,0,19.6,1.3,19.6,3.7c0,4.3-18.9,145.9-31.9,237.3c-4.7,32.9-10,61.1-11.6,63.1c-1.7,1.7-2.7,11.3-2.7,21.6
			c0.3,15.3,1,16.6,3,8.3l2.7-10l0.3,9.3c0.3,12,6,11.6,8.6-1c1.3-5.3,4.3-10,7-10c6.3,0,30.6-22.3,33.2-30.6
			c2-7,4.3-20.9,27.9-181.1c13.3-88.4,14.6-110.3,7-97.7c-1.7,2.3-10.3,59.8-19.9,127.6c-20.9,152.2-21.3,152.5-36.2,167.2
			c-6.3,6.3-13,11.3-14.6,11.3c-5.3,0-2.3-32.2,17.3-172.5c11-78.8,19.9-144.2,19.9-145.2s2.3-1.3,5,0c6.6,2.3,6.3-2-1.7-15.6
			l-7-11.6l-58.8-2.7c-95.4-4.7-254.5-3.7-280.8,1.7c-25.3,5-31.2,3.3-16-4.3c28.9-15,44.5-16.3,204.7-17.6
			c140.9-1,152.9-1.7,155.2-7c1.3-3,2.3-6.6,2.3-8c0.3-1.7-43.5-2.7-96.7-2.7c-176.8,0-254.9,10-278.1,34.6
			c-10,10.6-6.3,16.3,9.3,14.3s173.8,8,177.5,11c4.7,4-23.9,19.3-47.5,25.3c-26.3,6.6-48.5,4.7-82.7-7c-31.9-10.6-55.8-11-68.8-1
			c-15,11.6-19.9,18.3-39.9,53.5c-10.3,17.9-27.9,42.5-38.9,54.5c-25.9,27.6-45.5,37.6-75.4,37.6c-17.3,0.3-20.3,1-15.3,4
			c9,5,44.9,4,58.5-1.7c32.2-14,57.8-42.9,82.4-92.7c25.6-51.8,40.5-58.2,93.7-40.2c21.3,7.3,29.2,8.3,55.2,7
			c25.9-1,33.6-2.7,52.2-12c12-6,24.9-14.6,28.6-18.9c5.3-7,9-8.3,24.9-8.3c13.3,0,18.6,1.3,18.6,4.3c0,6.6-30.9,57.2-51.5,83.7
			c-21.6,28.2-65.8,72.4-93,93c-28.6,21.9-87.7,50.2-121.3,58.2c-61.1,14.3-124.6,6.3-184.4-23.3c-39.5-19.6-65.8-38.9-139.6-103
			c-91.1-79.1-129.3-103-192.7-121.3c-39.2-11.3-92.4-16.6-123-12.3l-23.3,3l32.2,0.7c45.9,0.7,79.1,5.6,118,18.6
			c64.1,21.3,97,42.9,179.1,116.3c85.7,77.1,119.6,101,169.1,120.3c17.9,7,21.3,9.3,17.9,13c-2.3,2.7-3,6-1.7,7.3s4.7-0.7,7.3-4
			c4-5.6,4.7-6,4.7-1c0,6.6,3.7,7.3,9.3,1.7c3-3,4-3,4,0.3c0,2.7,2.3,3.3,6.6,2c4-1.3,6.6-0.7,6.6,2c0,3,1,3,4.7,0
			c2.7-2.3,5.6-2.7,6.6-1c0.7,1.3,16,2.7,33.6,2.7c17.6-0.3,32.9,0.7,33.9,2.3c1,1.3,3.7,1,6.3-1.3c2.7-2,4.7-2.7,4.7-1
			s15,3,33.2,3.3c25.9,0,33.2-1,33.2-4.3c0-2.7-2-4.3-4-4c-11.3,1.3-35.9-0.7-35.9-3c0-1.7,8.6-5.3,19.3-8.6
			c10.3-3.3,30.6-12,45.2-18.9c24.6-12.3,25.9-12.6,23.6-5.6c-1.3,4.3-3,16-4,26.3c-1.3,14.6-0.3,21.3,5,31.9
			c13.6,26.3,44.5,44.2,68.1,39.5c46.2-9.3,61.1-73.4,25.6-109c-10.3-10.3-15-12.6-25.3-12.6c-25.3,0.3-39.9,16-44.9,47.2
			c-2,11.3-4,21.3-4.3,21.9c-0.7,0.7-5,0-10-1.3c-7.6-1.7-8.6-3.7-8.6-16.3c0-24.9,5.3-33.6,37.9-59.8c36.9-29.6,68.8-62.8,91.4-95
			c10.3-14.6,16.9-21.6,16.9-17.6c0,3.3-6.6,59.5-15,124.3c-13.6,108.3-14.3,118.6-9.6,125.6l5.3,8l-31.2-2
			c-16.9-1.3-75.1-4.3-128.9-7c-202-10.3-344.3-18.3-356.6-19.9c-20.6-3-11.3,4,17.9,13.3c36.6,11.3,79.8,14.6,223.3,17.3
			c67.1,1,122,2.7,122,3.7s-6.6,15.3-14.6,31.9c-16.3,33.9-24.3,43.2-43.5,48.2c-29.6,7.6-167.8,23.9-297.4,35.2
			C573.9,6977.3,480.5,6979,450.2,6975.7z M671.9,6951.4c45.5-3.7,104.3-8.6,130.6-11.6c26.6-2.7,63.8-6.6,83.1-8.6
			c49.8-5,50.2-5.3,68.1-39.9c8.3-16.3,14-29.6,12.6-29.6s-9,12-16.9,26.9c-8.6,16-17.3,27.6-21.6,29.2c-4,1.7-53.5,7.6-110.3,13.3
			c-182.8,18.3-244.2,21.3-244.2,12.3c0-2.3,6-23.3,13.3-46.2l13.3-41.5l11,3c10.3,2.7,79.8,9.6,93.7,9.3h6.6l-6.6-2.7
			c-3.7-1.7-19.3-3.7-34.9-5c-15.6-1.3-37.9-4.3-49.8-7c-11.6-2.3-22.3-4-23.6-3c-4.3,2.7-29.9,85.1-28.9,93.7c1,8,6,11.6,19.6,13.6
			C588.1,6958.1,626.4,6955.1,671.9,6951.4z M393.7,6938.4c-22.9-5.3-45.9-10.3-51.5-11.6c-7-1.3-6-0.7,3.3,3
			c15.6,6,69.5,17.9,81.4,17.6C431.6,6947.4,416.7,6943.4,393.7,6938.4z M709.1,6929.8c40.5-4.3,50.5-6.3,46.5-9.6
			c-0.7-0.7-13.3,0.3-27.6,1.7c-24.6,3-26.9,2.7-34.2-4.3c-4-4-8.6-6-10-4.7c-1.3,1.3,0,4,3.3,5.6c9.6,5.6,6.3,9.6-8.3,9.6
			c-22.3,0-49.2,4-49.2,7c0,1.7,8,2.3,17.6,1.3C656.6,6935.5,684.5,6932.5,709.1,6929.8z M924.4,6906.2c6-1.7,27.6-34.9,27.6-42.5
			c0-1-25.3-2-56.5-2H839v19.9c0,19.6,0,19.6,11,21.6C873.9,6907.2,914.8,6908.9,924.4,6906.2z M307.3,6900.2c0-0.7-6-5.3-13.6-10.6
			c-17.9-12.3-30.6-31.2-44.9-66.8c-6.3-16-10.6-23.9-9.3-17.6c6.3,34.9,31.6,75.1,56.2,90.1C306,6901.9,307.3,6902.2,307.3,6900.2z
			 M544.6,6868.3c1.7-6.6,1-6.3-2.7,1.7c-2.3,5.6-5.3,13.6-6.6,18.3c-1.7,6.6-1,6.3,2.7-1.7C540.3,6881.3,543.3,6873,544.6,6868.3z
			 M805.8,6880v-15h-34.9c-19.3,0-34.9,1.3-34.9,2.7c0,5.3,20.6,13.3,69.1,26.9C805.5,6894.9,805.8,6888.3,805.8,6880z
			 M1254.4,6891.6c0-1.7-6.6-3.3-15-3.3s-15,1.7-15,3.3c0,2,6.6,3.3,15,3.3S1254.4,6893.6,1254.4,6891.6z M376.1,6881
			c-1-2.3-1.7-0.7-1.7,4s0.7,6.3,1.7,4.3C376.8,6886.9,376.8,6883,376.1,6881z M356.2,6867.7c-1.3-4.3-3-17.6-4.3-29.6l-2-21.9
			l-43.9-8.6c-23.9-4.3-43.9-8-44.5-7.6c-0.3,0.7,2.3,9.6,6,20.3c9.3,27.2,22.3,47.9,30.9,49.8c14.3,3,24.3,4,41.9,4.7
			C356.9,6875,357.9,6874.6,356.2,6867.7z M474.5,6866.7c25.9-3,49.8-6,53.2-7c6.3-2,10.3-8.3,13.3-21.6l2.3-8.6l-75.4-4
			c-41.5-2.3-76.8-5-78.1-5.6c-3.3-2-3.3,4.7-0.7,31.6l2.3,20.3h17.9C419.3,6871.7,448.6,6869.3,474.5,6866.7z M372.8,6854.4
			c-1-2.7-2-1.7-2,2c-0.3,3.7,0.7,5.6,1.7,4.3C373.5,6859.7,373.8,6856.7,372.8,6854.4z M485.1,6810.2c-7.3-2.7-122-12-123.6-10.3
			c-4,4,1.7,5.6,27.6,8.3C414.7,6810.8,491.8,6812.5,485.1,6810.2z M920.5,6804.9c-66.1-5-231.3-13.3-235.3-12c-2,1,2.7,2,11,2.3
			s55.5,3.3,104.7,6.6c49.5,3,104,5.6,121.3,5.6h31.6L920.5,6804.9z M347.2,6800.5c0-3.3-7.3-6-23.9-8.6c-13.3-2-38.9-7-56.8-10.6
			s-33.6-5.6-34.6-4.7c-2.7,2.7,30.9,12,73.8,20.3c21.9,4.3,40.2,8,40.9,8C346.9,6805.2,347.2,6803.2,347.2,6800.5z M616.4,6775.3
			c10.6-11,20.6-16.9,33.2-20.9l18.3-5.3l-16.3,1.3c-9,1-20.9,4.3-26.6,7.6c-10.3,6-32.2,34.6-31.6,41.9c0,2,2,0.7,4-3
			C599.8,6793.2,608.1,6783.6,616.4,6775.3z M538.3,6785.3c-5.3-1.3-44.2-4.3-86.4-6.3c-74.4-3.7-152.5-12.6-199.1-22.3
			c-33.6-7-30.6-3,3.7,4.7c64.5,15,143.9,22.6,278.5,26.3C547.6,6787.9,547.6,6787.9,538.3,6785.3z M971.3,6777.6c-8.3-3-11-1.3-8,6
			c1.7,4.3,3,4.3,8.6,1C978.6,6780.3,978.6,6780.3,971.3,6777.6z M759.3,6770.6c0-3-7.3-4-26.6-4c-25.3,0.3-38.2,5.3-18.9,7.3
			c5,0.3,9-0.7,9-2.7s2-2,5,0.7c3,2.3,6,3.3,7,2.3s5.6-0.7,10.6,1C755.6,6777.9,759.3,6776.6,759.3,6770.6z M700.5,6770.6
			c2-5.3-0.7-9.3-4.7-6.6c-4,2.3-3.7,11.3,0,11.3C697.5,6775.3,699.5,6773.3,700.5,6770.6z M689.5,6768.6c0-1.7-1.3-3.3-3.3-3.3
			c-1.7,0-3.3,1.7-3.3,3.3c0,2,1.7,3.3,3.3,3.3C688.2,6772,689.5,6770.6,689.5,6768.6z M372.8,6760c2.7-7-4.3-14-9.3-9
			c-4.3,4.3-1.7,14.3,3.7,14.3C369.2,6765.3,371.5,6763,372.8,6760z M390.4,6757c0-2.7-3-5-6.6-5s-6.6,2.3-6.6,5s3,5,6.6,5
			S390.4,6759.7,390.4,6757z M1240.1,6718.1c-1-2.3-1.7-0.7-1.7,4s0.7,6.3,1.7,4.3C1240.8,6724.1,1240.8,6720.1,1240.1,6718.1z
			 M696.1,6622.1c-24.9-22.3-95.4-67.8-137.9-88.7c-76.8-38.2-137.6-54.2-207.7-54.8c-43.5,0-78.8,5-93,13c-4.7,3-5.6,4.3-2.3,3.3
			c34.2-10.6,114-10.6,161.8-0.3c78.4,16.9,213.7,80.4,275.8,129.3C712.8,6639.4,714.8,6638.7,696.1,6622.1z M740,6616.8
			c-16-19.3-21.3-29.2-29.9-57.5c-22.6-74.8-2.7-164.8,43.2-195.4c12-7.6,17.3-9,37.9-9c21.3,0,25.6,1,38.5,10.3
			c19.3,13.6,39.5,44.2,49.5,74.8c7,21.6,8,30.6,8,75.4c0,47.9,0.3,50.2,5,39.9c3.7-8,5-23.6,5-59.2c0-44.2-0.7-50.5-9.3-75.1
			c-36.6-106.7-127.9-121.3-174.8-28.2c-34.2,67.1-22.9,174.5,22.9,224.3C754.3,6637,756.6,6636.7,740,6616.8z M816.8,6626.1
			c13.6-5.3,32.2-23.6,40.9-40.5c36.6-72.4,14.6-178.5-42.5-207c-29.2-14.6-48.5-10.6-70.4,15c-49.2,57.5-36.9,189.1,20.9,228
			C777.6,6629.7,801.8,6631.7,816.8,6626.1z M174.4,6602.5c4.3-2.7,4.3-3.3-0.7-3.3c-3,0-10.6-6-16.9-13.3
			c-20.6-24.3-27.6-67.8-17.3-108c6.6-24.6,16.6-40.9,26.9-43.5c9.6-2.3,10.3-6.6,1.7-11.3c-11.3-6-19.3-3.7-29.6,8
			c-15.3,17.3-18.9,32.2-18.9,75.1c0,28.6,1.7,43.2,6.3,57.8C136.5,6595.8,158.1,6613.1,174.4,6602.5z M209.3,6564.9
			c8-27.2,9.3-57.5,3.7-88.4c-8.6-48.5-30.9-83.4-53.5-83.4c-29.2,0-55.8,54.5-54.2,111c0.7,19.6,0.7,19.6,1.7,3.7
			c1.7-27.2,7.6-58.5,13.3-69.5c2.7-5.6,9.6-15.3,15.3-20.9c14.6-15.6,28.9-15,45.5,1.7c24.9,24.9,36.9,94.4,24.3,142.6
			C198,6588.5,201.3,6591.5,209.3,6564.9z M187.4,6567.3c4-5,7-10.6,7-12.6s-3,1-6.3,6.6c-3.7,6-8.3,11.3-11,12.3s-3,2-0.3,2
			C178.7,6575.9,183.7,6571.9,187.4,6567.3z M113.6,6555.3c-1-2.7-2-1.7-2,2c-0.3,3.7,0.7,5.6,1.7,4.3
			C114.3,6560.6,114.6,6557.6,113.6,6555.3z M110.3,6537c-1-3.3-1.7-1.3-1.7,4c0,5.6,0.7,8,1.7,6C111,6544.7,111,6540,110.3,6537z
			 M158.5,6537c11-9.6,6.6-47.5-5.6-47.5c-6.3,0-15,13-15,22.6c0,8.6,8.6,30.6,12,30.6C151.2,6542.7,155.1,6540.3,158.5,6537z
			 M200,6510.4c-0.7-5.3-1.3-1.7-1.3,7.3c0,9.3,0.7,13.3,1.3,9.3C200.7,6522.7,200.7,6515.4,200,6510.4z M1366.7,6524.1
			c16.3-11.3,22.3-38.5,12.3-57.8c-15.3-29.6-51.5-16.6-51.5,18.6c0,8.3,2.3,19.3,5,24.6c5,9.6,16.9,19.9,23.3,19.9
			C1357.8,6529.4,1362.8,6527,1366.7,6524.1z M181.1,6507.8c0-2.7-0.7-5-1.3-5c-0.7,0-2,2.3-3.3,5c-1,2.7-0.3,5,1.3,5
			C179.7,6512.8,181.1,6510.4,181.1,6507.8z M194.4,6476.5c0-6-17.3-23.6-22.6-23.3c-4,0-3.3,1,2,3c4,1.7,10,7.6,13.3,13.3
			C193,6480.2,194.4,6481.5,194.4,6476.5z M304,6468.2c33.9-6.3,107-14.3,190.7-20.3c37.9-2.7,70.4-6,72.1-7s3-4,3-7
			c0-8.6,16-33.2,27.2-42.2l11-8.6l-15,1.7c-33.9,4-172.8,8.3-261.2,8.3h-94.7l8,11c7.6,10,19.6,39.9,23.9,59.8
			C271.1,6474.2,271.1,6474.2,304,6468.2z M1260.4,6410.1c12.3-25.9,28.9-46.5,48.5-60.8l13.6-10l-33.2,2
			c-130.6,8.3-252.6,15.3-289.1,16.9c-23.6,1.3-46.5,2.7-50.5,3.7l-7.6,1.3l9.6,17.6c5.3,9.3,12.3,24.3,15.3,32.9l6,16l131.6,1
			c72.4,0.3,134.6,1,138.2,1.7C1248.1,6432.7,1251.8,6428,1260.4,6410.1z M1342.8,6399.8c21.3-8.3,50.5-1,74.4,18.3l11.6,9.6
			l-11.6-12.3c-28.9-30.9-68.5-34.2-95.7-8c-17.6,16.6-19.9,25.6-2.7,9.6C1327.2,6409.4,1338.2,6401.4,1342.8,6399.8z M692.5,6396.1
			c2-6,3.7-11.6,3.7-12.6s-9-1.3-20.3-1l-20.3,1.3l9.3,5.6c5.3,3.3,11.6,8.3,14.3,11.3C685.5,6408.7,688.5,6407.7,692.5,6396.1z"/>
		<path d="M792.5,6612.8c-23.6-12.3-42.9-47.9-49.8-91.7c-9.6-60.5,19.9-130.6,57.5-136.9c33.9-5.3,64.8,44.5,67.8,110.3
			c2.7,52.8-9.3,92.7-33.9,114C820.4,6620.8,809.1,6621.8,792.5,6612.8z M830.4,6578.9c28.9-22.6,35.2-86.7,13.3-131.9
			c-13.3-26.9-39.5-38.9-56.5-25.3c-6,5-6,5,1,1.7c18.9-9.3,37.9,0.3,52.5,26.6c9.3,16.9,10,19.9,10,54.5c0,30.9-1,38.5-7,49.8
			c-10,18.3-19.3,25.9-35.6,28.6l-14,2l13.6,0.7C817.1,6585.9,824.4,6583.5,830.4,6578.9z M782.9,6539.3c16-8.6,21.3-40.2,10-58.8
			c-7.6-12.3-17.3-16.3-26.9-11c-18.9,10-17.3,58.2,2.3,69.5C775.6,6543.3,775.2,6543.3,782.9,6539.3z"/>
		<path d="M769.9,6533.7c-6.6-2.7-14-19.6-14-31.9c0-12,10.6-28.9,18.3-28.9c2.3,0,7.6,4,11.3,8.6c10,12.6,9.6,37.6-0.7,47.2
			C776.6,6536.4,776.6,6536.4,769.9,6533.7z M782.5,6519.7c5-9.6,4-18.6-3-27.2l-6-7.6l-5.6,9c-6,8.6-5,19.3,2,28.2
			C774.9,6527.7,778.6,6527,782.5,6519.7z"/>
		<path d="M146.5,6532c-4-13-4.7-20.9-2-27.9c3.7-9.6,12-10.3,14.3-1.3c1,3.7,0.3,6.6-1.3,6.6s-3-1.7-3-3.7c0-1.7-1.3-2.3-3.3-1.3
			c-3.7,2.3-4.7,24.9-1.3,24.9c1.3,0,4.3-2.7,6.6-5.6c3.7-5,4.3-5.3,4.7-0.7C161.1,6532.7,148.8,6540.3,146.5,6532z"/>
		<path d="M1337.5,6508.8c-3.7-6-6.6-15.3-6.6-20.3c0-23.3,19.9-39.2,33.2-27.2c9,8,13.6,25.9,10,38.5c-4.3,14.6-9.3,19.6-20.3,19.6
			C1346.5,6519.4,1342.5,6516.7,1337.5,6508.8z"/>
		<path d="M1264.7,6843.1c0-3.7,1-4.7,2-2c1,2.3,0.7,5.3-0.3,6.3C1265.4,6848.7,1264.4,6846.7,1264.7,6843.1z"/>
		<path d="M1099.9,6812.2c3.7-6.3-6-20.3-16.6-23.6c-12.3-4-27.2,0-34.2,9c-6,8.3-11.3,1-13.3-18.3l-1.3-16l12,1.3
			c29.9,3.3,58.2-8,53.5-22.3c-3.7-11.3-19.6-17.9-33.2-13.6c-6,2-13,6-15,8.6c-2.3,2.3-6,4.7-8,4.7s1.3-4.7,7.3-10
			c15.6-14.3,31.2-13.6,45.5,1.7c17.6,18.6,21.3,50.5,8.6,74.1c-2,4-4.7,7.3-5.6,7.3S1098.6,6813.8,1099.9,6812.2z"/>
		<path d="M1414.9,6788.9c4.3-12,1.3-19.6-10-23.9c-10.6-4-21.6-1.7-29.2,6c-4.7,4.7-6,4.7-8.6,0.7c-1.7-2.7-3-10-3-16.6v-12
			l24.9,0.3c18.3,0.3,25.9-1,29.9-5c4.7-4.7,4.7-6-2-14.3c-6-7.6-9.3-9-19.3-8c-6.6,1-15,2.7-18.6,4.3c-6,2.3-6.3,2-1.7-2.7
			c8.3-9,23.6-10,35.2-2.7c21.3,13,27.2,54.2,11,74.8C1414.6,6801.2,1410.3,6800.9,1414.9,6788.9z"/>
	</g>
</g>
<g>
	<path class="st0" d="M207.3,56.4c4.7,0,9.9-3.2,12.5-8.4c1,2.3,1.6,5,1.6,7.6c0,10.6-8.3,17.1-18,17.1c-10.2,0-17.8-6.5-17.8-20.9
		c0-24,19.1-49.1,35.9-49.1c6.7,0,11.2,6.3,11.1,11.6c-0.1,4.8-6.4,17.1-6.2,21.9c-3.4-0.2-6.9-1.5-8.9-3.3s-2.6-3.4-1.9-6.8
		c0.8-3.3,3.9-9.2,5.1-12.7c-11.3,3-21.5,21.1-21.5,33.1C199.3,53.2,202,56.4,207.3,56.4z"/>
	<path class="st0" d="M245.8,68.7c-2-1.7-2.7-4.1-1.8-7.7c-4.1,7.5-8.4,10.6-12.2,10.6c-3.4,0-6.5-2.3-6.6-9.7
		c-0.2-13.4,12.3-37,23.9-37c3.7,0,6.1,2.7,6.5,6.3c1.1-2.5,1.9-4.6,2.4-5.6c2,0.9,4,2.6,5.1,4.2c1.6,2.4,1.9,4.9,0.2,10
		c-2.6,7.7-10.7,26.3-9.6,32.8C251,71.9,247.9,70.6,245.8,68.7z M238.4,56.5c0,0.8,0.4,1.4,1.2,1.4c2.3,0,6.3-6.3,10-13.8
		c1.1-2.1,2.3-4.7,3.5-7.3c-0.3-1.4-1-2.4-2-2.4C247,34.4,238.4,51.1,238.4,56.5z"/>
	<path class="st0" d="M296,27.6c1.2,3.6,0.5,10.1-1.6,13.7c-1.1-1.7-2.4-2.7-4.3-2.7c-3.2,0-7.4,3.7-12.4,13.5
		c-3.9,7.5-6.6,16.2-6.6,20.4c-2.4-0.6-6.1-2.6-7.6-4.2c-1.7-1.8-2.4-4.4-1.2-9.1c3-12.1,12-29.3,12.8-34.7c2.2,1,4.1,2.5,5.4,4.2
		c1.3,1.9,1.7,4,0.8,7.1c1.7-4.1,4.5-8.2,7-10.1C291.7,23.1,294.7,23.8,296,27.6z"/>
	<path class="st0" d="M346.7,8c2.8,2.9,2.7,6.4,1.1,11c-1.8,5.3-5.2,13.8-8.6,22.5c0.9,2.5,1.1,5.9,0.8,10.1c-1-0.6-2.5-0.9-4.2-1.1
		c-3.8,10.2-6.9,19.4-6.7,22.5c-2.1-0.6-5-1.9-6.9-3.2c-3.1-2.1-4.4-4.9-2.9-10.5c0.6-2.2,1.5-5,2.6-8.1c-4.7,0.6-9.5,1.2-13.2,1.4
		c-3.4,9.4-6.2,17.4-6,20.2c-2.4-0.7-5.4-2.4-7.3-3.9c-2.1-1.7-2.9-4.8-1.6-9.6c0.9-3.3,2.4-7.9,4.2-13.1c-0.7-1.8-1.3-4-1.7-6.6
		c0.9,0.4,2.3,0.5,4.1,0.5c5.7-15.7,12.8-33.5,13.4-37.3c2.6,1.1,5.7,3,7.3,4.6c2.5,2.5,2.5,6.4,0.8,10.8
		c-1.8,4.9-4.7,12.5-7.8,20.6c4.1-0.6,8.6-1.2,12.8-1.5c5.5-14.9,11.9-30.9,12.3-34.5C341.6,3.7,344.9,6,346.7,8z"/>
	<path class="st0" d="M377.1,28.9c1.9,2.3,2.4,5.6,0.6,10.8c-2.6,7.7-11.1,27.3-9.9,32.8c-2.8-0.6-5.6-1.7-7.7-3.5
		c-1.7-1.4-2.4-3.4-2.1-6.1c-3.8,5.2-8.7,9-12.8,9c-2.9,0-5.8-2.9-5.8-8c0-11.3,11.9-29.2,13.3-39.2c2.5,0.9,5.4,2.6,6.8,4.2
		c2.4,2.9,2,5.7,0.6,10c-1.9,6-5.9,12.8-7.2,18.7c-0.6,2.4,0.6,2.6,2.2,0.8c5.6-6,15-28.4,15.4-33.9
		C373.2,25.6,375.7,27.2,377.1,28.9z"/>
	<path class="st0" d="M397.7,33.1c4.1-5.8,7.7-8.6,10.3-9c5.5-0.9,8,5.2,8,11.1c0,15.3-11.2,36.6-22.5,36.6
		c-5.5,0-10.9-3.2-13.4-7.2c-2.1-3.3-2.6-6.4-0.7-12.8c3.9-14.2,17.5-45,18.2-50.6c2.7,1.4,5,3.4,6.4,5.4c2,2.8,2,5.7,0.5,9.9
		C403.1,20.5,400.4,27.1,397.7,33.1z M388.6,58.6c0.7,0.8,1.7,1.2,2.7,1.2c4.3,0,12.3-17.3,12.3-22.4c0-0.9-0.4-1.5-1.1-1.5
		C400.3,35.9,392.5,47.3,388.6,58.6z"/>
</g>
</svg>
